<svg width="161" height="22" viewBox="0 0 161 22" fill="none" xmlns="http://www.w3.org/2000/svg">
<g clip-path="url(#clip0_8_309)">
<mask id="mask0_8_309" style="mask-type:luminance" maskUnits="userSpaceOnUse" x="0" y="0" width="161" height="22">
<path d="M161 0.5H0V21.5H161V0.5Z" fill="white"/>
</mask>
<g mask="url(#mask0_8_309)">
<path d="M13.5648 7.5H6.67125C6.21109 7.5 5.76914 7.67834 5.43966 7.99699L0.26809 12.9985C-0.298472 13.5464 0.0926068 14.5 0.883885 14.5H9.75873C10.2189 14.5 10.6608 14.3217 10.9903 14.003L16.6867 8.49397C17.3457 7.85668 18.2296 7.5 19.1499 7.5H34V0.5H22.9559C22.4958 0.5 22.0538 0.678341 21.7243 0.996985L16.028 6.50603C15.369 7.14332 14.4851 7.5 13.5648 7.5Z" fill="#2E58DB"/>
<path d="M33.9999 14.5H14.8131C14.3529 14.5 13.9109 14.6783 13.5815 14.997L8.40994 19.9985C7.84338 20.5464 8.23445 21.5 9.02573 21.5H33.9999V14.5Z" fill="#2E58DB"/>
<path d="M49.1 4H51.3L56.4 18H54.36L53.04 14.16H47.26L45.92 18H44L49.1 4ZM52.44 12.44L50.2 5.9H50.16L47.86 12.44H52.44Z" fill="#151515"/>
<path d="M58.4031 4H63.0031C64.6965 4 65.9165 4.33333 66.6631 5C67.4231 5.65333 67.8031 6.56666 67.8031 7.74C67.8031 9.08666 67.2165 10.0733 66.0431 10.7V10.74C67.4831 11.3267 68.2031 12.4333 68.2031 14.06C68.2031 15.3267 67.8231 16.3 67.0631 16.98C66.3165 17.66 65.0965 18 63.4031 18H58.4031V4ZM60.2831 5.72V9.94H62.9031C63.9965 9.94 64.7565 9.76 65.1831 9.4C65.6231 9.04 65.8431 8.52 65.8431 7.84C65.8431 7.16 65.6231 6.64 65.1831 6.28C64.7565 5.90666 63.9965 5.72 62.9031 5.72H60.2831ZM60.2831 11.66V16.28H63.3031C64.3965 16.28 65.1565 16.0933 65.5831 15.72C66.0231 15.3333 66.2431 14.7467 66.2431 13.96C66.2431 13.1867 66.0231 12.6133 65.5831 12.24C65.1565 11.8533 64.3965 11.66 63.3031 11.66H60.2831Z" fill="#151515"/>
<path d="M73.7725 5.72H69.3125V4H80.1125V5.72H75.6525V18H73.7725V5.72Z" fill="#151515"/>
<path d="M87.0085 18.1601C86.1018 18.1601 85.2818 18.0134 84.5485 17.7201C83.8152 17.4268 83.1818 16.9934 82.6485 16.4201C82.1285 15.8468 81.7218 15.1401 81.4285 14.3001C81.1485 13.4468 81.0085 12.4734 81.0085 11.3801V10.4201C81.0085 9.38009 81.1485 8.45342 81.4285 7.64009C81.7218 6.82675 82.1285 6.14009 82.6485 5.58009C83.1818 5.00675 83.8152 4.57342 84.5485 4.28009C85.2952 3.98675 86.1152 3.84009 87.0085 3.84009C87.9018 3.84009 88.7152 3.98675 89.4485 4.28009C90.1952 4.57342 90.8285 5.00009 91.3485 5.56009C91.8818 6.12009 92.2886 6.81342 92.5686 7.64009C92.8619 8.45342 93.0085 9.38009 93.0085 10.4201V11.3801C93.0085 12.4734 92.8619 13.4401 92.5686 14.2801C92.2886 15.1201 91.8818 15.8268 91.3485 16.4001C90.8285 16.9734 90.1952 17.4134 89.4485 17.7201C88.7152 18.0134 87.9018 18.1601 87.0085 18.1601ZM87.0085 16.4401C88.2085 16.4401 89.1818 16.0268 89.9285 15.2001C90.6752 14.3601 91.0485 13.0868 91.0485 11.3801V10.4201C91.0485 9.62009 90.9485 8.92009 90.7485 8.32009C90.5485 7.70675 90.2685 7.20009 89.9085 6.80009C89.5618 6.38675 89.1418 6.08009 88.6485 5.88009C88.1552 5.66675 87.6085 5.56009 87.0085 5.56009C86.4085 5.56009 85.8618 5.66009 85.3685 5.86009C84.8752 6.06009 84.4485 6.36675 84.0885 6.78009C83.7285 7.18009 83.4485 7.68675 83.2485 8.30009C83.0618 8.90009 82.9685 9.60675 82.9685 10.4201V11.3801C82.9685 12.2334 83.0685 12.9801 83.2685 13.6201C83.4685 14.2468 83.7485 14.7734 84.1085 15.2001C84.4685 15.6134 84.8952 15.9268 85.3885 16.1401C85.8818 16.3401 86.4218 16.4401 87.0085 16.4401Z" fill="#151515"/>
<path d="M101.108 18.1601C100.228 18.1601 99.4278 18.0134 98.7078 17.7201C97.9878 17.4268 97.3678 16.9934 96.8478 16.4201C96.3278 15.8468 95.9211 15.1401 95.6278 14.3001C95.3478 13.4468 95.2078 12.4734 95.2078 11.3801V10.4201C95.2078 9.38009 95.3478 8.45342 95.6278 7.64009C95.9211 6.82675 96.3278 6.14009 96.8478 5.58009C97.3678 5.00675 97.9878 4.57342 98.7078 4.28009C99.4411 3.98675 100.241 3.84009 101.108 3.84009C101.908 3.84009 102.621 3.95342 103.248 4.18009C103.888 4.40675 104.434 4.72009 104.888 5.12009C105.354 5.50675 105.728 5.96675 106.008 6.50009C106.301 7.02009 106.501 7.58675 106.608 8.20009H104.608C104.501 7.82675 104.348 7.48009 104.148 7.16009C103.961 6.84009 103.721 6.56009 103.428 6.32009C103.148 6.08009 102.808 5.89342 102.408 5.76009C102.021 5.62675 101.588 5.56009 101.108 5.56009C100.548 5.56009 100.021 5.66675 99.5278 5.88009C99.0478 6.08009 98.6345 6.38675 98.2878 6.80009C97.9411 7.21342 97.6678 7.72009 97.4678 8.32009C97.2678 8.92009 97.1678 9.62009 97.1678 10.4201V11.3801C97.1678 12.2201 97.2678 12.9601 97.4678 13.6001C97.6678 14.2268 97.9411 14.7534 98.2878 15.1801C98.6478 15.5934 99.0678 15.9068 99.5478 16.1201C100.028 16.3334 100.548 16.4401 101.108 16.4401C102.081 16.4401 102.854 16.1801 103.428 15.6601C104.014 15.1268 104.408 14.4401 104.608 13.6001H106.608C106.501 14.2668 106.301 14.8801 106.008 15.4401C105.728 15.9868 105.354 16.4668 104.888 16.8801C104.434 17.2801 103.888 17.5934 103.248 17.8201C102.621 18.0468 101.908 18.1601 101.108 18.1601Z" fill="#151515"/>
<path d="M112.401 4H114.601L119.701 18H117.661L116.341 14.16H110.561L109.221 18H107.301L112.401 4ZM115.741 12.44L113.501 5.9H113.461L111.161 12.44H115.741Z" fill="#151515"/>
<path d="M120.895 16.44H121.095C121.655 16.44 122.088 16.28 122.395 15.96C122.715 15.6267 122.948 15.18 123.095 14.62C123.241 14.0467 123.328 13.3733 123.355 12.6C123.381 11.8267 123.395 10.9933 123.395 10.1V4H132.595V18H130.715V5.72H125.275V10.1C125.275 11.1267 125.248 12.1267 125.195 13.1C125.155 14.06 125.001 14.92 124.735 15.68C124.468 16.4267 124.055 17.0267 123.495 17.48C122.935 17.9333 122.135 18.16 121.095 18.16H120.895V16.44Z" fill="#151515"/>
<path d="M141.286 18.1601C140.379 18.1601 139.559 18.0134 138.826 17.7201C138.093 17.4268 137.459 16.9934 136.926 16.4201C136.406 15.8468 135.999 15.1401 135.706 14.3001C135.426 13.4468 135.286 12.4734 135.286 11.3801V10.4201C135.286 9.38009 135.426 8.45342 135.706 7.64009C135.999 6.82675 136.406 6.14009 136.926 5.58009C137.459 5.00675 138.093 4.57342 138.826 4.28009C139.573 3.98675 140.393 3.84009 141.286 3.84009C142.179 3.84009 142.993 3.98675 143.726 4.28009C144.473 4.57342 145.106 5.00009 145.626 5.56009C146.159 6.12009 146.566 6.81342 146.846 7.64009C147.139 8.45342 147.286 9.38009 147.286 10.4201V11.3801C147.286 12.4734 147.139 13.4401 146.846 14.2801C146.566 15.1201 146.159 15.8268 145.626 16.4001C145.106 16.9734 144.473 17.4134 143.726 17.7201C142.993 18.0134 142.179 18.1601 141.286 18.1601ZM141.286 16.4401C142.486 16.4401 143.459 16.0268 144.206 15.2001C144.953 14.3601 145.326 13.0868 145.326 11.3801V10.4201C145.326 9.62009 145.226 8.92009 145.026 8.32009C144.826 7.70675 144.546 7.20009 144.186 6.80009C143.839 6.38675 143.419 6.08009 142.926 5.88009C142.433 5.66675 141.886 5.56009 141.286 5.56009C140.686 5.56009 140.139 5.66009 139.646 5.86009C139.153 6.06009 138.726 6.36675 138.366 6.78009C138.006 7.18009 137.726 7.68675 137.526 8.30009C137.339 8.90009 137.246 9.60675 137.246 10.4201V11.3801C137.246 12.2334 137.346 12.9801 137.546 13.6201C137.746 14.2468 138.026 14.7734 138.386 15.2001C138.746 15.6134 139.173 15.9268 139.666 16.1401C140.159 16.3401 140.699 16.4401 141.286 16.4401Z" fill="#151515"/>
<path d="M149.985 4H151.865V9.94H159.105V4H160.985V18H159.105V11.66H151.865V18H149.985V4Z" fill="#151515"/>
</g>
</g>
<defs>
<clipPath id="clip0_8_309">
<rect width="161" height="21" fill="white" transform="translate(0 0.5)"/>
</clipPath>
</defs>
</svg>
